<svg id="Capa_1" enable-background="new 0 0 507.02 507.02" height="512" viewBox="0 0 507.02 507.02" width="512" xmlns="http://www.w3.org/2000/svg"><g><g><g id="XMLID_490_"><g><path d="m215.358 116.789-44.79 1.75-128.17 6.12c-3 .15-4.19-3.81-1.62-5.35l134.75-80.84s35.27-20.11 36.67-20.11c1.41 0 3.16 98.43 3.16 98.43z" fill="#fec165"/></g></g><path d="m190.112 78.878c3.891-1.419 5.896-5.724 4.476-9.616-1.419-3.892-5.723-5.896-9.616-4.476l-130.107 47.451-5.829 2.117-8.258 4.954c-2.57 1.54-1.38 5.5 1.62 5.35l25.528-1.219z" fill="#fdb441"/><g><path d="m263.646 301.67-45.758-60.841c-2.34-1.32-4.58-2.83-6.69-4.54-11.54-9.32-18.71-22.99-19.83-37.9 0 0-.02-.22-.05-.61-1.19-15.97 5-31.61 16.81-42.43l56.63-51.84c12.15-11.12 18.21-27.42 16.27-43.78-.27-2.26-.54-4.58-.82-6.92-2.7-22.82-20.28-41.05-43.11-44.59l-.79-.13c-14.67-2.28-29.59 2.18-40.61 12.14l-20.17 18.24 7.05 14.34c7 14.23 6.7 30.94-.81 44.9-6.49 12.07-15.14 28.17-24.75 46.05-16.24 30.21-24.03 62.9-24.03 95.23 0 63.78 30.31 126.13 85.85 165.2 38.44 27.04 88.49 31.19 130.86 10.85l44.77-21.49 24.03-46.276z" fill="#f9f7f8"/><path d="m255.478 392.913c-55.54-39.07-85.85-101.42-85.85-165.2 0-32.33 7.79-65.02 24.03-95.23 9.61-17.88 18.26-33.98 24.75-46.05 7.51-13.96 7.81-55.67.81-69.9l-3.553-7.261c-7.325 2.019-14.188 5.733-19.967 10.956l-20.17 18.24 7.05 14.34c7 14.23 6.7 30.94-.81 44.9-6.49 12.07-15.14 28.17-24.75 46.05-16.24 30.21-24.03 62.9-24.03 95.23 0 63.78 30.31 126.13 85.85 165.2 38.412 27.02 88.417 31.182 130.767 10.893-32.588 4.935-66.381-2.651-94.127-22.168z" fill="#efedef"/><g id="XMLID_492_"><g><path d="m467.648 382.039v25.32c0 7.5-7.72 12.52-14.57 9.48l-35.91-15.93c-7.31-3.23-14.92-5.7-22.7-7.36-7.9-1.68-15.98-2.54-24.1-2.54h-43.45c-60.38 0-109.33-48.95-109.33-109.33l.3-40.85c2.49 1.41 5.09 2.59 7.77 3.54 5.2 1.83 10.72 2.79 16.32 2.79h90.79c59.68 0 112.27 39.23 129.28 96.44 1.85 6.23 3.25 12.59 4.19 19.01.94 6.43 1.41 12.92 1.41 19.43z" fill="#efedef"/></g></g></g></g><g><path d="m469.24 341.458c-7.71-25.928-22.561-49.017-42.944-66.769-3.124-2.721-7.861-2.394-10.582.73-2.72 3.124-2.394 7.861.73 10.582 18.235 15.881 31.52 36.536 38.418 59.733 3.507 11.791 5.285 24.006 5.285 36.308v25.314c0 1.354-.817 2.088-1.305 2.405-.488.316-1.49.766-2.727.218l-35.908-15.921c-15.793-7.002-32.56-10.553-49.835-10.553h-43.457c-56.148 0-101.829-45.68-101.829-101.829v-29.616c5.44 1.707 11.139 2.603 16.894 2.603h90.789c20.184 0 40.321 4.871 58.233 14.086 3.686 1.895 8.205.445 10.101-3.238 1.895-3.684.445-8.206-3.238-10.101-20.025-10.302-42.535-15.747-65.095-15.747h-90.79c-9.456 0-18.715-3.272-26.071-9.213-9.885-7.984-16.104-19.875-17.061-32.623l-.045-.608c-1.035-13.769 4.212-27.012 14.394-36.334l56.626-51.84c13.898-12.724 20.873-31.49 18.656-50.201l-.82-6.918c-3.085-26.061-23.402-47.083-49.405-51.122l-.792-.123c-16.981-2.636-34.039 2.458-46.79 13.985l-19.634 17.747-134.12 80.467c-4.087 2.452-5.978 7.351-4.596 11.912 1.333 4.401 5.373 7.374 9.931 7.374.167 0 .334-.004.502-.012l67.853-3.243c4.138-.198 7.331-3.712 7.133-7.85s-3.718-7.32-7.849-7.134l-18.28.874 87.644-31.965c-.8 3.911-2.159 7.73-4.09 11.322l-9.188 17.089-24.122 1.153c-4.138.197-7.331 3.712-7.133 7.849.192 4.016 3.507 7.142 7.485 7.142.121 0 .242-.003.364-.009l15.12-.723-7.28 13.541c-24.326 45.245-31.124 97.674-19.14 147.63.825 3.44 3.898 5.752 7.287 5.752.579 0 1.168-.068 1.756-.209 4.028-.966 6.51-5.015 5.543-9.042-11.123-46.368-4.813-95.032 17.766-137.028l24.754-46.042c8.63-16.053 8.979-35.402.935-51.761l-4.557-9.267 15.977-14.441c9.382-8.481 21.93-12.23 34.429-10.291l.792.123c19.377 3.01 34.515 18.663 36.813 38.064l.82 6.919c1.65 13.928-3.542 27.898-13.89 37.371l-56.626 51.84c-13.598 12.449-20.604 30.134-19.223 48.521l.045.607c1.267 16.861 9.502 32.596 22.594 43.17 1.166.942 2.37 1.829 3.602 2.67v36.886c0 64.419 52.409 116.829 116.829 116.829h39.903l-20.362 9.774c-39.876 19.142-87.121 15.222-123.298-10.228-30.138-21.201-53.535-50.308-67.661-84.174-1.595-3.823-5.988-5.63-9.809-4.035-3.823 1.594-5.629 5.986-4.035 9.809 15.217 36.483 40.417 67.835 72.874 90.669 17.054 11.997 36.302 19.709 56.206 23.055l-21.842 34.807h-17.764c-4.142 0-7.5 3.358-7.5 7.5s3.358 7.5 7.5 7.5h21.912c2.581 0 4.981-1.327 6.353-3.514l4.633-7.384 5.478 7.733c1.406 1.985 3.688 3.165 6.12 3.165h4.341l-5.509 8.839h-17.749c-4.142 0-7.5 3.358-7.5 7.5s3.358 7.5 7.5 7.5h21.912c2.589 0 4.995-1.335 6.365-3.533l4.605-7.388 5.494 7.756c1.406 1.985 3.688 3.165 6.12 3.165h16.476c4.142 0 7.5-3.358 7.5-7.5s-3.358-7.5-7.5-7.5h-12.597l-6.889-9.725 32.473-52.099c7.586-2.128 15.044-4.92 22.284-8.396l42.439-20.372c6.389 1.524 12.647 3.639 18.741 6.341l35.909 15.921c2.327 1.032 4.795 1.542 7.252 1.542 3.401 0 6.781-.977 9.734-2.898 5.087-3.31 8.125-8.909 8.125-14.979v-25.314c-.005-13.747-1.993-27.401-5.912-40.58zm-296.847-292.366 3.458 7.03c1.684 3.424 2.849 7.028 3.534 10.701l-93.203 33.992zm116.919 419.089h-9.812l-6.841-9.658 14.669-23.376c2.078.094 4.157.157 6.239.157 5.637 0 11.279-.359 16.895-1.054z"/><path d="m225.086 49.079v-7.642c0-4.142-3.358-7.5-7.5-7.5s-7.5 3.358-7.5 7.5v7.642c0 4.142 3.358 7.5 7.5 7.5s7.5-3.358 7.5-7.5z"/></g></g></svg>